<?xml version="1.0" encoding="UTF-8"?>
<svg xmlns="http://www.w3.org/2000/svg" viewBox="0 0 400 400">
  <!-- Outer Circle -->
  <circle cx="200" cy="200" r="190" fill="#2D1B0B" stroke="#FFD700" stroke-width="8"/>
  
  <!-- Inner Decorative Circle -->
  <circle cx="200" cy="200" r="170" fill="none" stroke="#FFD700" stroke-width="2" opacity="0.5"/>
  
  <!-- Top Tea Cup Icon -->
  <ellipse cx="200" cy="70" rx="25" ry="18" fill="#D4A574" stroke="#8B4513" stroke-width="2"/>
  <ellipse cx="200" cy="52" rx="20" ry="8" fill="#8B6F47" stroke="#8B4513" stroke-width="1"/>
  <path d="M 225 65 Q 240 70 235 85" stroke="#8B4513" stroke-width="2" fill="none"/>
  <!-- Steam -->
  <path d="M 195 50 Q 190 35 195 20" stroke="#D4A574" stroke-width="2" fill="none" opacity="0.7"/>
  <path d="M 205 48 Q 200 33 205 18" stroke="#D4A574" stroke-width="2" fill="none" opacity="0.7"/>
  
  <!-- Tea Leaves -->
  <path d="M 160 60 Q 150 55 148 70" fill="#7CB342" stroke="#558B2F" stroke-width="1.5"/>
  <path d="M 240 60 Q 250 55 252 70" fill="#7CB342" stroke="#558B2F" stroke-width="1.5"/>
  
  <!-- Left Glass -->
  <rect x="80" y="110" width="40" height="50" rx="5" fill="#F4A460" stroke="#8B4513" stroke-width="2"/>
  <ellipse cx="100" cy="110" rx="20" ry="8" fill="#FFB84D" stroke="#8B4513" stroke-width="1"/>
  <text x="100" y="142" font-size="20" text-anchor="middle" fill="none">🥛</text>
  
  <!-- Right Coffee Cup -->
  <ellipse cx="320" cy="130" rx="22" ry="28" fill="#F5DEB3" stroke="#8B4513" stroke-width="2"/>
  <path d="M 342 125 Q 360 135 355 150" stroke="#8B4513" stroke-width="2" fill="none"/>
  <ellipse cx="320" cy="103" rx="18" ry="6" fill="#D2B48C" stroke="#8B4513" stroke-width="1"/>
  <circle cx="320" cy="125" r="12" fill="#8B4513" opacity="0.3"/>
  
  <!-- Coffee Beans -->
  <ellipse cx="310" cy="155" rx="4" ry="8" fill="#6F4E37" transform="rotate(-30 310 155)"/>
  <ellipse cx="325" cy="158" rx="4" ry="8" fill="#6F4E37" transform="rotate(20 325 158)"/>
  
  <!-- Main Title -->
  <text x="200" y="200" font-size="48" font-weight="bold" text-anchor="middle" fill="#FFF8DC" font-family="Arial, sans-serif">TIWARI</text>
  
  <!-- Subtitle -->
  <text x="200" y="235" font-size="32" font-weight="bold" text-anchor="middle" fill="#FFD700" font-family="Arial, sans-serif">TEA STALL</text>
  
  <!-- Green Banner with Services -->
  <rect x="80" y="250" width="240" height="50" rx="10" fill="#1B5E20" stroke="#FFD700" stroke-width="2"/>
  
  <!-- Service Icons and Text -->
  <text x="110" y="268" font-size="11" text-anchor="middle" fill="#FFF" font-weight="bold">☕ TEA</text>
  <text x="110" y="283" font-size="9" text-anchor="middle" fill="#FFD700">Fresh</text>
  
  <text x="160" y="268" font-size="11" text-anchor="middle" fill="#FFF" font-weight="bold">☕ COFFEE</text>
  <text x="160" y="283" font-size="9" text-anchor="middle" fill="#FFD700">Premium</text>
  
  <text x="210" y="268" font-size="11" text-anchor="middle" fill="#FFF" font-weight="bold">🛒 GROCERIES</text>
  <text x="210" y="283" font-size="9" text-anchor="middle" fill="#FFD700">Daily</text>
  
  <text x="280" y="268" font-size="11" text-anchor="middle" fill="#FFF" font-weight="bold">🥬 VEG</text>
  <text x="280" y="283" font-size="9" text-anchor="middle" fill="#FFD700">Fresh</text>
  
  <!-- Tagline -->
  <text x="200" y="330" font-size="14" text-anchor="middle" fill="#FFD700" font-style="italic" font-family="Georgia, serif">Har Zaroorat, Ek Hi Jagah</text>
  
  <!-- Contact Info -->
  <text x="200" y="360" font-size="12" text-anchor="middle" fill="#FFF">📞 9772320628 | Owner: Mohan lal Tiwari</text>
  
  <!-- Location -->
  <text x="200" y="380" font-size="10" text-anchor="middle" fill="#FFD700">📍 Borawad Road • 24/7 SERVICE</text>
  
  <!-- Bottom Decoration -->
  <path d="M 120 390 Q 200 395 280 390" stroke="#FFD700" stroke-width="1.5" fill="none" opacity="0.5"/>
</svg>